<?xml version="1.0" encoding="UTF-8" standalone="no"?>
<!DOCTYPE svg PUBLIC "-//W3C//DTD SVG 1.1//EN"
 "http://www.w3.org/Graphics/SVG/1.1/DTD/svg11.dtd">
<!-- Generated by graphviz version 2.38.0 (20140413.2041)
 -->
<!-- Title: InvalidArgumentException Pages: 1 -->
<svg width="154pt" height="85pt"
 viewBox="0.00 0.00 154.00 84.92" xmlns="http://www.w3.org/2000/svg" xmlns:xlink="http://www.w3.org/1999/xlink">
<g id="graph0" class="graph" transform="scale(1 1) rotate(0) translate(4 80.9166)">
<title>InvalidArgumentException</title>
<polygon fill="white" stroke="none" points="-4,4 -4,-80.9166 150,-80.9166 150,4 -4,4"/>
<!-- Node2 -->
<g id="node1" class="node"><title>Node2</title>
<polygon fill="#bfbfbf" stroke="black" points="0,-1.41656 0,-20.4166 128,-20.4166 128,-1.41656 0,-1.41656"/>
<text text-anchor="middle" x="64" y="-8.41656" font-family="Helvetica,sans-Serif" font-size="10.00">InvalidArgumentException</text>
</g>
<!-- Node2&#45;&gt;Node2 -->
<g id="edge1" class="edge"><title>Node2&#45;&gt;Node2</title>
<path fill="none" stroke="midnightblue" d="M109.177,-21.275C128.975,-22.1822 146,-18.7294 146,-10.9166 146,-1.78375 122.736,1.39133 98.9731,-1.39133"/>
<polygon fill="midnightblue" stroke="midnightblue" points="109.225,-17.7674 98.9731,-20.4418 108.655,-24.7441 109.225,-17.7674"/>
</g>
<!-- Node3 -->
<g id="node2" class="node"><title>Node3</title>
<g id="a_node2"><a xlink:href="interface_p_e_a_r2_1_1_cache_1_1_s_h_m_1_1_exception.html" target="_top" xlink:title="Exception">
<polygon fill="white" stroke="black" points="34,-57.4166 34,-76.4166 94,-76.4166 94,-57.4166 34,-57.4166"/>
<text text-anchor="middle" x="64" y="-64.4166" font-family="Helvetica,sans-Serif" font-size="10.00">Exception</text>
</a>
</g>
</g>
<!-- Node3&#45;&gt;Node2 -->
<g id="edge2" class="edge"><title>Node3&#45;&gt;Node2</title>
<path fill="none" stroke="midnightblue" d="M64,-46.7211C64,-37.8268 64,-27.6964 64,-20.6676"/>
<polygon fill="midnightblue" stroke="midnightblue" points="60.5001,-46.9995 64,-56.9996 67.5001,-46.9996 60.5001,-46.9995"/>
</g>
</g>
</svg>
