<?xml version="1.0" encoding="UTF-8" standalone="no"?>
<!DOCTYPE svg PUBLIC "-//W3C//DTD SVG 1.1//EN"
 "http://www.w3.org/Graphics/SVG/1.1/DTD/svg11.dtd">
<!-- Generated by graphviz version 2.38.0 (20140413.2041)
 -->
<!-- Title: SHM Pages: 1 -->
<svg width="254pt" height="140pt"
 viewBox="0.00 0.00 253.50 140.00" xmlns="http://www.w3.org/2000/svg" xmlns:xlink="http://www.w3.org/1999/xlink">
<g id="graph0" class="graph" transform="scale(1 1) rotate(0) translate(4 136)">
<title>SHM</title>
<polygon fill="white" stroke="none" points="-4,4 -4,-136 249.5,-136 249.5,4 -4,4"/>
<!-- Node0 -->
<g id="node1" class="node"><title>Node0</title>
<polygon fill="#bfbfbf" stroke="black" points="89.5,-56.5 89.5,-75.5 127.5,-75.5 127.5,-56.5 89.5,-56.5"/>
<text text-anchor="middle" x="108.5" y="-63.5" font-family="Helvetica,sans-Serif" font-size="10.00">SHM</text>
</g>
<!-- Node2 -->
<g id="node3" class="node"><title>Node2</title>
<g id="a_node3"><a xlink:href="class_p_e_a_r2_1_1_cache_1_1_s_h_m_1_1_adapter_1_1_a_p_c.html" target="_top" xlink:title="APC">
<polygon fill="white" stroke="black" points="0,-0.5 0,-19.5 37,-19.5 37,-0.5 0,-0.5"/>
<text text-anchor="middle" x="18.5" y="-7.5" font-family="Helvetica,sans-Serif" font-size="10.00">APC</text>
</a>
</g>
</g>
<!-- Node0&#45;&gt;Node2 -->
<g id="edge2" class="edge"><title>Node0&#45;&gt;Node2</title>
<path fill="none" stroke="midnightblue" d="M85.4623,-51.1774C68.9011,-41.2407 47.082,-28.1492 32.9242,-19.6545"/>
<polygon fill="midnightblue" stroke="midnightblue" points="83.6642,-54.1802 94.0399,-56.324 87.2658,-48.1777 83.6642,-54.1802"/>
</g>
<!-- Node3 -->
<g id="node4" class="node"><title>Node3</title>
<g id="a_node4"><a xlink:href="class_p_e_a_r2_1_1_cache_1_1_s_h_m_1_1_adapter_1_1_a_p_cu.html" target="_top" xlink:title="APCu">
<polygon fill="white" stroke="black" points="55.5,-0.5 55.5,-19.5 97.5,-19.5 97.5,-0.5 55.5,-0.5"/>
<text text-anchor="middle" x="76.5" y="-7.5" font-family="Helvetica,sans-Serif" font-size="10.00">APCu</text>
</a>
</g>
</g>
<!-- Node0&#45;&gt;Node3 -->
<g id="edge3" class="edge"><title>Node0&#45;&gt;Node3</title>
<path fill="none" stroke="midnightblue" d="M97.9961,-47.2747C92.5269,-38.0454 86.0824,-27.1703 81.6858,-19.7511"/>
<polygon fill="midnightblue" stroke="midnightblue" points="95.1068,-49.2644 103.216,-56.083 101.129,-45.6957 95.1068,-49.2644"/>
</g>
<!-- Node4 -->
<g id="node5" class="node"><title>Node4</title>
<g id="a_node5"><a xlink:href="class_p_e_a_r2_1_1_cache_1_1_s_h_m_1_1_adapter_1_1_placebo.html" target="_top" xlink:title="Placebo">
<polygon fill="white" stroke="black" points="115.5,-0.5 115.5,-19.5 167.5,-19.5 167.5,-0.5 115.5,-0.5"/>
<text text-anchor="middle" x="141.5" y="-7.5" font-family="Helvetica,sans-Serif" font-size="10.00">Placebo</text>
</a>
</g>
</g>
<!-- Node0&#45;&gt;Node4 -->
<g id="edge4" class="edge"><title>Node0&#45;&gt;Node4</title>
<path fill="none" stroke="midnightblue" d="M119.332,-47.2747C124.972,-38.0454 131.618,-27.1703 136.152,-19.7511"/>
<polygon fill="midnightblue" stroke="midnightblue" points="116.177,-45.7251 113.949,-56.083 122.15,-49.3753 116.177,-45.7251"/>
</g>
<!-- Node5 -->
<g id="node6" class="node"><title>Node5</title>
<g id="a_node6"><a xlink:href="class_p_e_a_r2_1_1_cache_1_1_s_h_m_1_1_adapter_1_1_wincache.html" target="_top" xlink:title="Wincache">
<polygon fill="white" stroke="black" points="185.5,-0.5 185.5,-19.5 245.5,-19.5 245.5,-0.5 185.5,-0.5"/>
<text text-anchor="middle" x="215.5" y="-7.5" font-family="Helvetica,sans-Serif" font-size="10.00">Wincache</text>
</a>
</g>
</g>
<!-- Node0&#45;&gt;Node5 -->
<g id="edge5" class="edge"><title>Node0&#45;&gt;Node5</title>
<path fill="none" stroke="midnightblue" d="M134.802,-51.7261C154.615,-41.7271 181.207,-28.3065 198.351,-19.6545"/>
<polygon fill="midnightblue" stroke="midnightblue" points="133.042,-48.6938 125.691,-56.324 136.196,-54.9431 133.042,-48.6938"/>
</g>
<!-- Node1 -->
<g id="node2" class="node"><title>Node1</title>
<polygon fill="white" stroke="#bfbfbf" points="63,-112.5 63,-131.5 154,-131.5 154,-112.5 63,-112.5"/>
<text text-anchor="middle" x="108.5" y="-119.5" font-family="Helvetica,sans-Serif" font-size="10.00">IteratorAggregate</text>
</g>
<!-- Node1&#45;&gt;Node0 -->
<g id="edge1" class="edge"><title>Node1&#45;&gt;Node0</title>
<path fill="none" stroke="midnightblue" d="M108.5,-101.805C108.5,-92.9102 108.5,-82.7798 108.5,-75.7511"/>
<polygon fill="midnightblue" stroke="midnightblue" points="105,-102.083 108.5,-112.083 112,-102.083 105,-102.083"/>
</g>
</g>
</svg>
