<?xml version="1.0" encoding="UTF-8" standalone="no"?>
<!DOCTYPE svg PUBLIC "-//W3C//DTD SVG 1.1//EN"
 "http://www.w3.org/Graphics/SVG/1.1/DTD/svg11.dtd">
<!-- Generated by graphviz version 2.38.0 (20140413.2041)
 -->
<!-- Title: APC Pages: 1 -->
<svg width="99pt" height="140pt"
 viewBox="0.00 0.00 99.00 140.00" xmlns="http://www.w3.org/2000/svg" xmlns:xlink="http://www.w3.org/1999/xlink">
<g id="graph0" class="graph" transform="scale(1 1) rotate(0) translate(4 136)">
<title>APC</title>
<polygon fill="white" stroke="none" points="-4,4 -4,-136 95,-136 95,4 -4,4"/>
<!-- Node0 -->
<g id="node1" class="node"><title>Node0</title>
<polygon fill="#bfbfbf" stroke="black" points="27,-0.5 27,-19.5 64,-19.5 64,-0.5 27,-0.5"/>
<text text-anchor="middle" x="45.5" y="-7.5" font-family="Helvetica,sans-Serif" font-size="10.00">APC</text>
</g>
<!-- Node1 -->
<g id="node2" class="node"><title>Node1</title>
<g id="a_node2"><a xlink:href="class_p_e_a_r2_1_1_cache_1_1_s_h_m.html" target="_top" xlink:title="SHM">
<polygon fill="white" stroke="black" points="26.5,-56.5 26.5,-75.5 64.5,-75.5 64.5,-56.5 26.5,-56.5"/>
<text text-anchor="middle" x="45.5" y="-63.5" font-family="Helvetica,sans-Serif" font-size="10.00">SHM</text>
</a>
</g>
</g>
<!-- Node1&#45;&gt;Node0 -->
<g id="edge1" class="edge"><title>Node1&#45;&gt;Node0</title>
<path fill="none" stroke="midnightblue" d="M45.5,-45.8045C45.5,-36.9102 45.5,-26.7798 45.5,-19.7511"/>
<polygon fill="midnightblue" stroke="midnightblue" points="42.0001,-46.083 45.5,-56.083 49.0001,-46.083 42.0001,-46.083"/>
</g>
<!-- Node2 -->
<g id="node3" class="node"><title>Node2</title>
<polygon fill="white" stroke="#bfbfbf" points="0,-112.5 0,-131.5 91,-131.5 91,-112.5 0,-112.5"/>
<text text-anchor="middle" x="45.5" y="-119.5" font-family="Helvetica,sans-Serif" font-size="10.00">IteratorAggregate</text>
</g>
<!-- Node2&#45;&gt;Node1 -->
<g id="edge2" class="edge"><title>Node2&#45;&gt;Node1</title>
<path fill="none" stroke="midnightblue" d="M45.5,-101.805C45.5,-92.9102 45.5,-82.7798 45.5,-75.7511"/>
<polygon fill="midnightblue" stroke="midnightblue" points="42.0001,-102.083 45.5,-112.083 49.0001,-102.083 42.0001,-102.083"/>
</g>
</g>
</svg>
