<?xml version="1.0" encoding="UTF-8" standalone="no"?>
<!DOCTYPE svg PUBLIC "-//W3C//DTD SVG 1.1//EN"
 "http://www.w3.org/Graphics/SVG/1.1/DTD/svg11.dtd">
<!-- Generated by graphviz version 2.38.0 (20140413.2041)
 -->
<!-- Title: InvalidArgumentException Pages: 1 -->
<svg width="172pt" height="85pt"
 viewBox="0.00 0.00 172.00 84.91" xmlns="http://www.w3.org/2000/svg" xmlns:xlink="http://www.w3.org/1999/xlink">
<g id="graph0" class="graph" transform="scale(1 1) rotate(0) translate(4 80.9135)">
<title>InvalidArgumentException</title>
<polygon fill="white" stroke="none" points="-4,4 -4,-80.9135 168,-80.9135 168,4 -4,4"/>
<!-- Node0 -->
<g id="node1" class="node"><title>Node0</title>
<polygon fill="#bfbfbf" stroke="black" points="0,-1.41347 0,-20.4135 128,-20.4135 128,-1.41347 0,-1.41347"/>
<text text-anchor="middle" x="64" y="-8.41347" font-family="Helvetica,sans-Serif" font-size="10.00">InvalidArgumentException</text>
</g>
<!-- Node0&#45;&gt;Node0 -->
<g id="edge1" class="edge"><title>Node0&#45;&gt;Node0</title>
<path fill="none" stroke="midnightblue" d="M138.505,-14.5989C143.182,-13.7313 146,-12.5028 146,-10.9135 146,-8.3705 138.785,-6.75134 128.288,-6.056"/>
<polygon fill="midnightblue" stroke="midnightblue" points="137.824,-11.1541 128.288,-15.7709 138.621,-18.1085 137.824,-11.1541"/>
</g>
<!-- Node0&#45;&gt;Node0 -->
<g id="edge3" class="edge"><title>Node0&#45;&gt;Node0</title>
<path fill="none" stroke="midnightblue" d="M116.543,-21.1604C141.757,-22.4158 164,-19.0002 164,-10.9135 164,-1.75331 135.46,1.41338 106.39,-1.41338"/>
<polygon fill="midnightblue" stroke="midnightblue" points="116.62,-17.6567 106.39,-20.4136 116.106,-24.6378 116.62,-17.6567"/>
</g>
<!-- Node1 -->
<g id="node2" class="node"><title>Node1</title>
<g id="a_node2"><a xlink:href="interface_p_e_a_r2_1_1_cache_1_1_s_h_m_1_1_exception.html" target="_top" xlink:title="Exception">
<polygon fill="white" stroke="black" points="34,-57.4135 34,-76.4135 94,-76.4135 94,-57.4135 34,-57.4135"/>
<text text-anchor="middle" x="64" y="-64.4135" font-family="Helvetica,sans-Serif" font-size="10.00">Exception</text>
</a>
</g>
</g>
<!-- Node1&#45;&gt;Node0 -->
<g id="edge2" class="edge"><title>Node1&#45;&gt;Node0</title>
<path fill="none" stroke="midnightblue" d="M64,-46.718C64,-37.8237 64,-27.6933 64,-20.6645"/>
<polygon fill="midnightblue" stroke="midnightblue" points="60.5001,-46.9964 64,-56.9965 67.5001,-46.9965 60.5001,-46.9964"/>
</g>
</g>
</svg>
