<?xml version="1.0" encoding="UTF-8" standalone="no"?>
<!DOCTYPE svg PUBLIC "-//W3C//DTD SVG 1.1//EN"
 "http://www.w3.org/Graphics/SVG/1.1/DTD/svg11.dtd">
<!-- Generated by graphviz version 2.38.0 (20140413.2041)
 -->
<!-- Title: Graphical Class Hierarchy Pages: 1 -->
<svg width="230pt" height="104pt"
 viewBox="0.00 0.00 230.00 104.00" xmlns="http://www.w3.org/2000/svg" xmlns:xlink="http://www.w3.org/1999/xlink">
<g id="graph0" class="graph" transform="scale(1 1) rotate(0) translate(4 100)">
<title>Graphical Class Hierarchy</title>
<polygon fill="white" stroke="none" points="-4,4 -4,-100 226,-100 226,4 -4,4"/>
<!-- Node3 -->
<g id="node1" class="node"><title>Node3</title>
<g id="a_node1"><a xlink:href="class_p_e_a_r2_1_1_cache_1_1_s_h_m_1_1_adapter_1_1_placebo.html" target="_top" xlink:title="Placebo">
<polygon fill="white" stroke="black" points="0,-38.5 0,-57.5 52,-57.5 52,-38.5 0,-38.5"/>
<text text-anchor="middle" x="26" y="-45.5" font-family="Helvetica,sans-Serif" font-size="10.00">Placebo</text>
</a>
</g>
</g>
<!-- Node0 -->
<g id="node2" class="node"><title>Node0</title>
<g id="a_node2"><a xlink:href="class_p_e_a_r2_1_1_cache_1_1_s_h_m.html" target="_top" xlink:title="SHM">
<polygon fill="white" stroke="black" points="88,-38.5 88,-57.5 126,-57.5 126,-38.5 88,-38.5"/>
<text text-anchor="middle" x="107" y="-45.5" font-family="Helvetica,sans-Serif" font-size="10.00">SHM</text>
</a>
</g>
</g>
<!-- Node3&#45;&gt;Node0 -->
<g id="edge1" class="edge"><title>Node3&#45;&gt;Node0</title>
<path fill="none" stroke="midnightblue" d="M62.5064,-41.2808C71.2829,-41.1452 80.325,-41.4579 87.8758,-42.2191"/>
<polygon fill="midnightblue" stroke="midnightblue" points="62.2976,-37.7859 52.4309,-41.6459 62.5512,-44.7813 62.2976,-37.7859"/>
</g>
<!-- Node0&#45;&gt;Node3 -->
<g id="edge4" class="edge"><title>Node0&#45;&gt;Node3</title>
<path fill="none" stroke="midnightblue" d="M77.8799,-54.4946C69.5813,-54.8769 60.55,-54.83 52.4309,-54.3541"/>
<polygon fill="midnightblue" stroke="midnightblue" points="78.1505,-57.9843 87.8758,-53.7809 77.6519,-51.0021 78.1505,-57.9843"/>
</g>
<!-- Node1 -->
<g id="node3" class="node"><title>Node1</title>
<g id="a_node3"><a xlink:href="class_p_e_a_r2_1_1_cache_1_1_s_h_m_1_1_adapter_1_1_a_p_c.html" target="_top" xlink:title="APC">
<polygon fill="white" stroke="black" points="173.5,-76.5 173.5,-95.5 210.5,-95.5 210.5,-76.5 173.5,-76.5"/>
<text text-anchor="middle" x="192" y="-83.5" font-family="Helvetica,sans-Serif" font-size="10.00">APC</text>
</a>
</g>
</g>
<!-- Node0&#45;&gt;Node1 -->
<g id="edge2" class="edge"><title>Node0&#45;&gt;Node1</title>
<path fill="none" stroke="midnightblue" d="M135.121,-60.417C147.664,-66.1594 162.206,-72.8172 173.311,-77.9012"/>
<polygon fill="midnightblue" stroke="midnightblue" points="136.559,-57.2259 126.01,-56.2454 133.645,-63.5906 136.559,-57.2259"/>
</g>
<!-- Node2 -->
<g id="node4" class="node"><title>Node2</title>
<g id="a_node4"><a xlink:href="class_p_e_a_r2_1_1_cache_1_1_s_h_m_1_1_adapter_1_1_a_p_cu.html" target="_top" xlink:title="APCu">
<polygon fill="white" stroke="black" points="171,-38.5 171,-57.5 213,-57.5 213,-38.5 171,-38.5"/>
<text text-anchor="middle" x="192" y="-45.5" font-family="Helvetica,sans-Serif" font-size="10.00">APCu</text>
</a>
</g>
</g>
<!-- Node0&#45;&gt;Node2 -->
<g id="edge3" class="edge"><title>Node0&#45;&gt;Node2</title>
<path fill="none" stroke="midnightblue" d="M136.35,-48C147.74,-48 160.604,-48 170.989,-48"/>
<polygon fill="midnightblue" stroke="midnightblue" points="136.01,-44.5001 126.01,-48 136.01,-51.5001 136.01,-44.5001"/>
</g>
<!-- Node4 -->
<g id="node5" class="node"><title>Node4</title>
<g id="a_node5"><a xlink:href="class_p_e_a_r2_1_1_cache_1_1_s_h_m_1_1_adapter_1_1_wincache.html" target="_top" xlink:title="Wincache">
<polygon fill="white" stroke="black" points="162,-0.5 162,-19.5 222,-19.5 222,-0.5 162,-0.5"/>
<text text-anchor="middle" x="192" y="-7.5" font-family="Helvetica,sans-Serif" font-size="10.00">Wincache</text>
</a>
</g>
</g>
<!-- Node0&#45;&gt;Node4 -->
<g id="edge5" class="edge"><title>Node0&#45;&gt;Node4</title>
<path fill="none" stroke="midnightblue" d="M135.428,-35.4426C146.72,-30.273 159.588,-24.3815 170.096,-19.5706"/>
<polygon fill="midnightblue" stroke="midnightblue" points="133.645,-32.4094 126.01,-39.7546 136.559,-38.7741 133.645,-32.4094"/>
</g>
</g>
</svg>
