<?xml version="1.0" encoding="UTF-8" standalone="no"?>
<!DOCTYPE svg PUBLIC "-//W3C//DTD SVG 1.1//EN"
 "http://www.w3.org/Graphics/SVG/1.1/DTD/svg11.dtd">
<!-- Generated by graphviz version 2.38.0 (20140413.2041)
 -->
<!-- Title: Graphical Class Hierarchy Pages: 1 -->
<svg width="232pt" height="46pt"
 viewBox="0.00 0.00 232.00 46.00" xmlns="http://www.w3.org/2000/svg" xmlns:xlink="http://www.w3.org/1999/xlink">
<g id="graph0" class="graph" transform="scale(1 1) rotate(0) translate(4 42)">
<title>Graphical Class Hierarchy</title>
<polygon fill="white" stroke="none" points="-4,4 -4,-42 228,-42 228,4 -4,4"/>
<!-- Node2 -->
<g id="node1" class="node"><title>Node2</title>
<g id="a_node1"><a xlink:href="interface_p_e_a_r2_1_1_cache_1_1_s_h_m_1_1_exception.html" target="_top" xlink:title="Exception">
<polygon fill="white" stroke="black" points="0,-0.5 0,-19.5 60,-19.5 60,-0.5 0,-0.5"/>
<text text-anchor="middle" x="30" y="-7.5" font-family="Helvetica,sans-Serif" font-size="10.00">Exception</text>
</a>
</g>
</g>
<!-- Node0 -->
<g id="node2" class="node"><title>Node0</title>
<g id="a_node2"><a xlink:href="class_p_e_a_r2_1_1_cache_1_1_s_h_m_1_1_invalid_argument_exception.html" target="_top" xlink:title="InvalidArgumentException">
<polygon fill="white" stroke="#bfbfbf" points="96,-0.5 96,-19.5 224,-19.5 224,-0.5 96,-0.5"/>
<text text-anchor="middle" x="160" y="-7.5" font-family="Helvetica,sans-Serif" font-size="10.00">InvalidArgumentException</text>
</a>
</g>
</g>
<!-- Node2&#45;&gt;Node0 -->
<g id="edge1" class="edge"><title>Node2&#45;&gt;Node0</title>
<path fill="none" stroke="midnightblue" d="M70.2902,-10C78.3987,-10 87.1324,-10 95.8452,-10"/>
<polygon fill="midnightblue" stroke="midnightblue" points="70.0452,-6.5001 60.0452,-10 70.0451,-13.5001 70.0452,-6.5001"/>
</g>
<!-- Node0&#45;&gt;Node0 -->
<g id="edge2" class="edge"><title>Node0&#45;&gt;Node0</title>
<path fill="none" stroke="midnightblue" d="M135.819,-29.0292C137.138,-34.128 145.198,-38 160,-38 183.105,-38 189.784,-28.5653 180.037,-19.7571"/>
<polygon fill="midnightblue" stroke="midnightblue" points="139.078,-30.3148 139.963,-19.7571 132.687,-27.4582 139.078,-30.3148"/>
</g>
</g>
</svg>
