<?xml version="1.0" encoding="UTF-8" standalone="no"?>
<!DOCTYPE svg PUBLIC "-//W3C//DTD SVG 1.1//EN"
 "http://www.w3.org/Graphics/SVG/1.1/DTD/svg11.dtd">
<!-- Generated by graphviz version 2.30.1 (20130214.1330)
 -->
<!-- Title: G Pages: 1 -->
<svg width="744pt" height="474pt"
 viewBox="0.00 0.00 744.00 474.00" xmlns="http://www.w3.org/2000/svg" xmlns:xlink="http://www.w3.org/1999/xlink">
<g id="graph0" class="graph" transform="scale(1 1) rotate(0) translate(4 470)">
<title>G</title>
<polygon fill="white" stroke="white" points="-4,5 -4,-470 741,-470 741,5 -4,5"/>
<g id="clust1" class="cluster"><title>cluster_Global</title>
<path fill="none" stroke="gray" d="M275,-44C275,-44 716,-44 716,-44 722,-44 728,-50 728,-56 728,-56 728,-446 728,-446 728,-452 722,-458 716,-458 716,-458 275,-458 275,-458 269,-458 263,-452 263,-446 263,-446 263,-56 263,-56 263,-50 269,-44 275,-44"/>
<text text-anchor="middle" x="495.5" y="-445.2" font-family="Times New Roman,serif" font-size="11.00" fill="gray">\</text>
</g>
<g id="clust2" class="cluster"><title>cluster_\PEAR2</title>
<path fill="none" stroke="gray" d="M283,-52C283,-52 708,-52 708,-52 714,-52 720,-58 720,-64 720,-64 720,-418 720,-418 720,-424 714,-430 708,-430 708,-430 283,-430 283,-430 277,-430 271,-424 271,-418 271,-418 271,-64 271,-64 271,-58 277,-52 283,-52"/>
<text text-anchor="middle" x="495.5" y="-417.2" font-family="Times New Roman,serif" font-size="11.00" fill="gray">PEAR2</text>
</g>
<g id="clust3" class="cluster"><title>cluster_\PEAR2\Cache</title>
<path fill="none" stroke="gray" d="M291,-60C291,-60 700,-60 700,-60 706,-60 712,-66 712,-72 712,-72 712,-390 712,-390 712,-396 706,-402 700,-402 700,-402 291,-402 291,-402 285,-402 279,-396 279,-390 279,-390 279,-72 279,-72 279,-66 285,-60 291,-60"/>
<text text-anchor="middle" x="495.5" y="-389.2" font-family="Times New Roman,serif" font-size="11.00" fill="gray">Cache</text>
</g>
<g id="clust4" class="cluster"><title>cluster_\PEAR2\Cache\SHM</title>
<path fill="none" stroke="gray" d="M299,-68C299,-68 692,-68 692,-68 698,-68 704,-74 704,-80 704,-80 704,-318 704,-318 704,-324 698,-330 692,-330 692,-330 299,-330 299,-330 293,-330 287,-324 287,-318 287,-318 287,-80 287,-80 287,-74 293,-68 299,-68"/>
<text text-anchor="middle" x="495.5" y="-317.2" font-family="Times New Roman,serif" font-size="11.00" fill="gray">SHM</text>
</g>
<g id="clust5" class="cluster"><title>cluster_\PEAR2\Cache\SHM\Adapter</title>
<path fill="none" stroke="gray" d="M574,-122C574,-122 638,-122 638,-122 644,-122 650,-128 650,-134 650,-134 650,-290 650,-290 650,-296 644,-302 638,-302 638,-302 574,-302 574,-302 568,-302 562,-296 562,-290 562,-290 562,-134 562,-134 562,-128 568,-122 574,-122"/>
<text text-anchor="middle" x="606" y="-289.2" font-family="Times New Roman,serif" font-size="11.00" fill="gray">Adapter</text>
</g>
<!-- \\PEAR2\\Cache\\SHM\\Adapter\\APC -->
<g id="node1" class="node"><title>\\PEAR2\\Cache\\SHM\\Adapter\\APC</title>
<polygon fill="none" stroke="black" points="633,-274 579,-274 579,-238 633,-238 633,-274"/>
<text text-anchor="middle" x="606" y="-253.2" font-family="Courier,monospace" font-size="11.00">APC</text>
</g>
<!-- \\PEAR2\\Cache\\SHM -->
<g id="node6" class="node"><title>\\PEAR2\\Cache\\SHM</title>
<polygon fill="none" stroke="black" points="376.5,-374 291.5,-374 291.5,-338 376.5,-338 376.5,-374"/>
<text text-anchor="start" x="300" y="-359.7" font-family="Courier,monospace" font-size="11.00">«abstract»</text>
<text text-anchor="start" x="323.5" y="-348.7" font-family="Courier,monospace" font-size="11.00">SHM</text>
</g>
<!-- \\PEAR2\\Cache\\SHM\\Adapter\\APC&#45;&gt;\\PEAR2\\Cache\\SHM -->
<g id="edge2" class="edge"><title>\\PEAR2\\Cache\\SHM\\Adapter\\APC&#45;&gt;\\PEAR2\\Cache\\SHM</title>
<path fill="none" stroke="black" d="M578.812,-271.249C547.651,-288.779 493.592,-317.282 444,-334 425.632,-340.192 404.905,-344.911 386.495,-348.36"/>
<polygon fill="none" stroke="black" points="385.76,-344.936 376.535,-350.147 386.996,-351.826 385.76,-344.936"/>
</g>
<!-- \\PEAR2\\Cache\\SHM\\Adapter\\Placebo -->
<g id="node2" class="node"><title>\\PEAR2\\Cache\\SHM\\Adapter\\Placebo</title>
<polygon fill="none" stroke="black" points="638,-220 574,-220 574,-184 638,-184 638,-220"/>
<text text-anchor="middle" x="606" y="-199.2" font-family="Courier,monospace" font-size="11.00">Placebo</text>
</g>
<!-- \\PEAR2\\Cache\\SHM\\Adapter\\Placebo&#45;&gt;\\PEAR2\\Cache\\SHM -->
<g id="edge3" class="edge"><title>\\PEAR2\\Cache\\SHM\\Adapter\\Placebo&#45;&gt;\\PEAR2\\Cache\\SHM</title>
<path fill="none" stroke="black" d="M573.85,-206.17C555.621,-209.828 532.935,-216.597 516,-229 470.35,-262.434 491.192,-302.781 444,-334 427.213,-345.105 406.02,-350.814 386.794,-353.68"/>
<polygon fill="none" stroke="black" points="386.136,-350.235 376.656,-354.964 387.016,-357.179 386.136,-350.235"/>
</g>
<!-- \\PEAR2\\Cache\\SHM\\Adapter\\Wincache -->
<g id="node3" class="node"><title>\\PEAR2\\Cache\\SHM\\Adapter\\Wincache</title>
<polygon fill="none" stroke="black" points="641.5,-166 570.5,-166 570.5,-130 641.5,-130 641.5,-166"/>
<text text-anchor="middle" x="606" y="-145.2" font-family="Courier,monospace" font-size="11.00">Wincache</text>
</g>
<!-- \\PEAR2\\Cache\\SHM\\Adapter\\Wincache&#45;&gt;\\PEAR2\\Cache\\SHM -->
<g id="edge4" class="edge"><title>\\PEAR2\\Cache\\SHM\\Adapter\\Wincache&#45;&gt;\\PEAR2\\Cache\\SHM</title>
<path fill="none" stroke="black" d="M570.42,-151.602C552.403,-155.049 531.052,-161.797 516,-175 457.683,-226.155 504.69,-285.683 444,-334 427.923,-346.799 406.371,-352.758 386.676,-355.352"/>
<polygon fill="none" stroke="black" points="386.161,-351.887 376.585,-356.421 386.898,-358.848 386.161,-351.887"/>
</g>
<!-- \\PEAR2\\Cache\\SHM\\InvalidArgumentException -->
<g id="node4" class="node"><title>\\PEAR2\\Cache\\SHM\\InvalidArgumentException</title>
<polygon fill="none" stroke="black" points="695.5,-112 516.5,-112 516.5,-76 695.5,-76 695.5,-112"/>
<text text-anchor="middle" x="606" y="-91.2" font-family="Courier,monospace" font-size="11.00">InvalidArgumentException</text>
</g>
<!-- \\InvalidArgumentException -->
<g id="node8" class="node"><title>\\InvalidArgumentException</title>
<ellipse fill="none" stroke="black" cx="334" cy="-18" rx="109.681" ry="18"/>
<text text-anchor="middle" x="334" y="-14.3" font-family="Times New Roman,serif" font-size="14.00" fill="gray">\InvalidArgumentException</text>
</g>
<!-- \\PEAR2\\Cache\\SHM\\InvalidArgumentException&#45;&gt;\\InvalidArgumentException -->
<g id="edge5" class="edge"><title>\\PEAR2\\Cache\\SHM\\InvalidArgumentException&#45;&gt;\\InvalidArgumentException</title>
<path fill="none" stroke="black" d="M541.014,-75.9891C498.48,-64.0165 442.798,-48.3432 400.048,-36.3097"/>
<polygon fill="none" stroke="black" points="400.88,-32.908 390.305,-33.5674 398.983,-39.6461 400.88,-32.908"/>
</g>
<!-- \\PEAR2\\Cache\\SHM\\Exception -->
<g id="node5" class="node"><title>\\PEAR2\\Cache\\SHM\\Exception</title>
<polygon fill="none" stroke="black" points="372.5,-112 295.5,-112 295.5,-76 372.5,-76 372.5,-112"/>
<text text-anchor="middle" x="334" y="-91.2" font-family="Courier,monospace" font-size="11.00">Exception</text>
</g>
<!-- \\PEAR2\\Cache\\SHM\\InvalidArgumentException&#45;&gt;\\PEAR2\\Cache\\SHM\\Exception -->
<g id="edge6" class="edge"><title>\\PEAR2\\Cache\\SHM\\InvalidArgumentException&#45;&gt;\\PEAR2\\Cache\\SHM\\Exception</title>
<path fill="none" stroke="black" stroke-dasharray="1,5" d="M516.218,-94C471.872,-94 419.96,-94 383.091,-94"/>
<polygon fill="none" stroke="black" points="382.634,-90.5001 372.634,-94 382.634,-97.5001 382.634,-90.5001"/>
</g>
<!-- \\IteratorAggregate -->
<g id="node7" class="node"><title>\\IteratorAggregate</title>
<ellipse fill="none" stroke="black" cx="76" cy="-356" rx="76.0865" ry="18"/>
<text text-anchor="middle" x="76" y="-352.3" font-family="Times New Roman,serif" font-size="14.00" fill="gray">\IteratorAggregate</text>
</g>
<!-- \\PEAR2\\Cache\\SHM&#45;&gt;\\IteratorAggregate -->
<g id="edge1" class="edge"><title>\\PEAR2\\Cache\\SHM&#45;&gt;\\IteratorAggregate</title>
<path fill="none" stroke="black" stroke-dasharray="1,5" d="M291.299,-356C256.541,-356 205.889,-356 162.556,-356"/>
<polygon fill="none" stroke="black" points="162.288,-352.5 152.288,-356 162.288,-359.5 162.288,-352.5"/>
</g>
</g>
</svg>
