<?xml version="1.0" encoding="UTF-8" standalone="no"?>
<!DOCTYPE svg PUBLIC "-//W3C//DTD SVG 1.1//EN"
 "http://www.w3.org/Graphics/SVG/1.1/DTD/svg11.dtd">
<!-- Generated by graphviz version 2.28.0 (20110507.0327)
 -->
<!-- Title: G Pages: 1 -->
<svg width="742pt" height="438pt"
 viewBox="0.00 0.00 742.00 438.00" xmlns="http://www.w3.org/2000/svg" xmlns:xlink="http://www.w3.org/1999/xlink">
<g id="graph1" class="graph" transform="scale(1 1) rotate(0) translate(4 434)">
<title>G</title>
<polygon fill="white" stroke="white" points="-4,5 -4,-434 739,-434 739,5 -4,5"/>
<g id="graph2" class="cluster"><title>cluster_PEAR2</title>
<polyline fill="none" stroke="gray" points="289,-44 714,-44 "/>
<path fill="none" stroke="gray" d="M714,-44C720,-44 726,-50 726,-56"/>
<polyline fill="none" stroke="gray" points="726,-56 726,-410 "/>
<path fill="none" stroke="gray" d="M726,-410C726,-416 720,-422 714,-422"/>
<polyline fill="none" stroke="gray" points="714,-422 289,-422 "/>
<path fill="none" stroke="gray" d="M289,-422C283,-422 277,-416 277,-410"/>
<polyline fill="none" stroke="gray" points="277,-410 277,-56 "/>
<path fill="none" stroke="gray" d="M277,-56C277,-50 283,-44 289,-44"/>
<text text-anchor="middle" x="501.5" y="-409.2" font-family="Times New Roman,serif" font-size="11.00" fill="gray">PEAR2</text>
</g>
<g id="graph3" class="cluster"><title>cluster_PEAR2\Cache</title>
<polyline fill="none" stroke="gray" points="297,-52 706,-52 "/>
<path fill="none" stroke="gray" d="M706,-52C712,-52 718,-58 718,-64"/>
<polyline fill="none" stroke="gray" points="718,-64 718,-382 "/>
<path fill="none" stroke="gray" d="M718,-382C718,-388 712,-394 706,-394"/>
<polyline fill="none" stroke="gray" points="706,-394 297,-394 "/>
<path fill="none" stroke="gray" d="M297,-394C291,-394 285,-388 285,-382"/>
<polyline fill="none" stroke="gray" points="285,-382 285,-64 "/>
<path fill="none" stroke="gray" d="M285,-64C285,-58 291,-52 297,-52"/>
<text text-anchor="middle" x="501.5" y="-381.2" font-family="Times New Roman,serif" font-size="11.00" fill="gray">Cache</text>
</g>
<g id="graph4" class="cluster"><title>cluster_PEAR2\Cache\SHM</title>
<polyline fill="none" stroke="gray" points="305,-60 698,-60 "/>
<path fill="none" stroke="gray" d="M698,-60C704,-60 710,-66 710,-72"/>
<polyline fill="none" stroke="gray" points="710,-72 710,-310 "/>
<path fill="none" stroke="gray" d="M710,-310C710,-316 704,-322 698,-322"/>
<polyline fill="none" stroke="gray" points="698,-322 305,-322 "/>
<path fill="none" stroke="gray" d="M305,-322C299,-322 293,-316 293,-310"/>
<polyline fill="none" stroke="gray" points="293,-310 293,-72 "/>
<path fill="none" stroke="gray" d="M293,-72C293,-66 299,-60 305,-60"/>
<text text-anchor="middle" x="501.5" y="-309.2" font-family="Times New Roman,serif" font-size="11.00" fill="gray">SHM</text>
</g>
<g id="graph5" class="cluster"><title>cluster_PEAR2\Cache\SHM\Adapter</title>
<polyline fill="none" stroke="gray" points="580,-114 644,-114 "/>
<path fill="none" stroke="gray" d="M644,-114C650,-114 656,-120 656,-126"/>
<polyline fill="none" stroke="gray" points="656,-126 656,-282 "/>
<path fill="none" stroke="gray" d="M656,-282C656,-288 650,-294 644,-294"/>
<polyline fill="none" stroke="gray" points="644,-294 580,-294 "/>
<path fill="none" stroke="gray" d="M580,-294C574,-294 568,-288 568,-282"/>
<polyline fill="none" stroke="gray" points="568,-282 568,-126 "/>
<path fill="none" stroke="gray" d="M568,-126C568,-120 574,-114 580,-114"/>
<text text-anchor="middle" x="612" y="-281.2" font-family="Times New Roman,serif" font-size="11.00" fill="gray">Adapter</text>
</g>
<!-- \\PEAR2\\Cache\\SHM\\Adapter\\APC -->
<g id="node5" class="node"><title>\\PEAR2\\Cache\\SHM\\Adapter\\APC</title>
<a xlink:href="SHM.Adapter.APC.html" xlink:title="APC" target="_parent">
<polygon fill="none" stroke="black" points="639,-266 585,-266 585,-230 639,-230 639,-266"/>
<text text-anchor="middle" x="612" y="-245.2" font-family="Courier,monospace" font-size="11.00">APC</text>
</a>
</g>
<!-- \\PEAR2\\Cache\\SHM -->
<g id="node11" class="node"><title>\\PEAR2\\Cache\\SHM</title>
<a xlink:href="SHM.html" xlink:title="SHM" target="_parent">
<polygon fill="none" stroke="black" points="367,-366 313,-366 313,-330 367,-330 367,-366"/>
<text text-anchor="middle" x="340" y="-345.2" font-family="Courier,monospace" font-size="11.00">SHM</text>
</a>
</g>
<!-- \\PEAR2\\Cache\\SHM\\Adapter\\APC&#45;&gt;\\PEAR2\\Cache\\SHM -->
<g id="edge10" class="edge"><title>\\PEAR2\\Cache\\SHM\\Adapter\\APC&#45;&gt;\\PEAR2\\Cache\\SHM</title>
<path fill="none" stroke="black" d="M584.812,-263.249C553.651,-280.779 499.592,-309.282 450,-326 426.261,-334.003 398.582,-339.545 377.056,-343.065"/>
<polygon fill="none" stroke="black" points="376.367,-339.63 367.028,-344.633 377.448,-346.546 376.367,-339.63"/>
</g>
<!-- \\PEAR2\\Cache\\SHM\\Adapter\\Placebo -->
<g id="node6" class="node"><title>\\PEAR2\\Cache\\SHM\\Adapter\\Placebo</title>
<a xlink:href="SHM.Adapter.Placebo.html" xlink:title="Placebo" target="_parent">
<polygon fill="none" stroke="black" points="644,-212 580,-212 580,-176 644,-176 644,-212"/>
<text text-anchor="middle" x="612" y="-191.2" font-family="Courier,monospace" font-size="11.00">Placebo</text>
</a>
</g>
<!-- \\PEAR2\\Cache\\SHM\\Adapter\\Placebo&#45;&gt;\\PEAR2\\Cache\\SHM -->
<g id="edge12" class="edge"><title>\\PEAR2\\Cache\\SHM\\Adapter\\Placebo&#45;&gt;\\PEAR2\\Cache\\SHM</title>
<path fill="none" stroke="black" d="M579.85,-198.17C561.621,-201.828 538.935,-208.597 522,-221 476.35,-254.434 497.192,-294.781 450,-326 428.595,-340.16 400.025,-345.547 377.506,-347.453"/>
<polygon fill="none" stroke="black" points="377.065,-343.974 367.314,-348.118 377.521,-350.959 377.065,-343.974"/>
</g>
<!-- \\PEAR2\\Cache\\SHM\\Adapter\\Wincache -->
<g id="node7" class="node"><title>\\PEAR2\\Cache\\SHM\\Adapter\\Wincache</title>
<a xlink:href="SHM.Adapter.Wincache.html" xlink:title="Wincache" target="_parent">
<polygon fill="none" stroke="black" points="647.5,-158 576.5,-158 576.5,-122 647.5,-122 647.5,-158"/>
<text text-anchor="middle" x="612" y="-137.2" font-family="Courier,monospace" font-size="11.00">Wincache</text>
</a>
</g>
<!-- \\PEAR2\\Cache\\SHM\\Adapter\\Wincache&#45;&gt;\\PEAR2\\Cache\\SHM -->
<g id="edge14" class="edge"><title>\\PEAR2\\Cache\\SHM\\Adapter\\Wincache&#45;&gt;\\PEAR2\\Cache\\SHM</title>
<path fill="none" stroke="black" d="M576.42,-143.602C558.403,-147.049 537.052,-153.797 522,-167 463.683,-218.155 510.69,-277.683 450,-326 429.568,-342.266 400.292,-347.485 377.225,-348.789"/>
<polygon fill="none" stroke="black" points="376.99,-345.295 367.117,-349.138 377.232,-352.291 376.99,-345.295"/>
</g>
<!-- \\PEAR2\\Cache\\SHM\\Exception -->
<g id="node8" class="node"><title>\\PEAR2\\Cache\\SHM\\Exception</title>
<a xlink:href="SHM.Exception.html" xlink:title="Exception" target="_parent">
<polygon fill="none" stroke="black" points="378.5,-104 301.5,-104 301.5,-68 378.5,-68 378.5,-104"/>
<text text-anchor="middle" x="340" y="-83.2" font-family="Courier,monospace" font-size="11.00">Exception</text>
</a>
</g>
<!-- \\PEAR2\\Cache\\SHM\\InvalidArgumentException -->
<g id="node9" class="node"><title>\\PEAR2\\Cache\\SHM\\InvalidArgumentException</title>
<a xlink:href="SHM.InvalidArgumentException.html" xlink:title="InvalidArgumentException" target="_parent">
<polygon fill="none" stroke="black" points="701.5,-104 522.5,-104 522.5,-68 701.5,-68 701.5,-104"/>
<text text-anchor="middle" x="612" y="-83.2" font-family="Courier,monospace" font-size="11.00">InvalidArgumentException</text>
</a>
</g>
<!-- \\PEAR2\\Cache\\SHM\\InvalidArgumentException&#45;&gt;\\PEAR2\\Cache\\SHM\\Exception -->
<g id="edge20" class="edge"><title>\\PEAR2\\Cache\\SHM\\InvalidArgumentException&#45;&gt;\\PEAR2\\Cache\\SHM\\Exception</title>
<path fill="none" stroke="black" stroke-dasharray="1,5" d="M522.218,-86C477.872,-86 425.96,-86 389.091,-86"/>
<polygon fill="none" stroke="black" points="388.634,-82.5001 378.634,-86 388.634,-89.5001 388.634,-82.5001"/>
</g>
<!-- \\InvalidArgumentException -->
<g id="node19" class="node"><title>\\InvalidArgumentException</title>
<ellipse fill="none" stroke="black" cx="340" cy="-18" rx="109.681" ry="18"/>
<text text-anchor="middle" x="340" y="-14.3" font-family="Times New Roman,serif" font-size="14.00" fill="gray">\InvalidArgumentException</text>
</g>
<!-- \\PEAR2\\Cache\\SHM\\InvalidArgumentException&#45;&gt;\\InvalidArgumentException -->
<g id="edge16" class="edge"><title>\\PEAR2\\Cache\\SHM\\InvalidArgumentException&#45;&gt;\\InvalidArgumentException</title>
<path fill="none" stroke="black" d="M539.354,-67.9558C499.459,-57.9083 450.019,-45.4567 410.478,-35.4983"/>
<polygon fill="none" stroke="black" points="411.203,-32.0715 400.651,-33.0232 409.493,-38.8595 411.203,-32.0715"/>
</g>
<!-- \\IteratorAggregate -->
<g id="node21" class="node"><title>\\IteratorAggregate</title>
<ellipse fill="none" stroke="black" cx="79" cy="-348" rx="78.7863" ry="18"/>
<text text-anchor="middle" x="79" y="-344.3" font-family="Times New Roman,serif" font-size="14.00" fill="gray">\\IteratorAggregate</text>
</g>
<!-- \\PEAR2\\Cache\\SHM&#45;&gt;\\IteratorAggregate -->
<g id="edge18" class="edge"><title>\\PEAR2\\Cache\\SHM&#45;&gt;\\IteratorAggregate</title>
<path fill="none" stroke="black" stroke-dasharray="1,5" d="M312.74,-348C278.982,-348 218.662,-348 167.89,-348"/>
<polygon fill="none" stroke="black" points="167.873,-344.5 157.873,-348 167.873,-351.5 167.873,-344.5"/>
</g>
</g>
</svg>
